<?xml version="1.0" standalone="no"?>
<!DOCTYPE svg PUBLIC "-//W3C//DTD SVG 20010904//EN"
 "http://www.w3.org/TR/2001/REC-SVG-20010904/DTD/svg10.dtd">
<svg version="1.0" xmlns="http://www.w3.org/2000/svg"
 width="2000.000000pt" height="1500.000000pt" viewBox="0 0 2000.000000 1500.000000"
 preserveAspectRatio="xMidYMid meet">

<g transform="translate(0.000000,1500.000000) scale(0.100000,-0.100000)"
fill="#fff" stroke="none">
<path d="M9565 11803 c-605 -38 -1220 -206 -1725 -469 -188 -98 -310 -175
-310 -196 0 -11 -38 -43 -107 -89 -396 -263 -751 -589 -1028 -944 -291 -372
-559 -894 -685 -1333 -33 -115 -35 -126 -20 -117 14 9 13 -1 -15 -117 -170
-714 -163 -1424 22 -2038 34 -114 132 -372 160 -420 13 -24 14 -24 8 15 -4 22
-7 44 -8 49 -1 5 3 10 10 13 6 2 20 -21 33 -54 22 -60 96 -221 205 -448 59
-123 143 -240 160 -224 3 4 -12 43 -34 87 -188 374 -341 864 -400 1277 -38
270 -35 398 4 173 15 -86 37 -158 49 -158 3 0 4 217 3 483 -2 475 -2 484 22
590 13 59 26 106 28 104 2 -3 -1 -42 -7 -88 -18 -139 -23 -423 -11 -594 18
-250 72 -560 119 -680 16 -39 16 -39 24 -15 4 15 5 5 2 -24 -5 -45 -4 -49 10
-37 9 8 18 12 20 10 1 -2 46 -107 100 -232 135 -317 175 -401 256 -538 85
-144 185 -277 317 -424 54 -60 107 -123 117 -140 11 -16 37 -51 58 -76 29 -35
38 -54 38 -83 0 -84 230 -415 423 -608 184 -184 358 -351 427 -410 297 -251
698 -469 1155 -625 279 -95 486 -141 795 -178 74 -9 187 -25 251 -35 199 -34
415 -23 789 40 256 43 400 74 575 125 1018 296 1939 1020 2470 1945 305 530
480 1077 552 1720 24 215 24 695 0 908 -39 346 -112 679 -213 975 -64 184
-164 420 -179 419 -21 -1 -39 26 -101 150 -453 904 -1226 1624 -2124 1978 -43
17 -48 17 -43 3 8 -19 29 -25 -222 61 -204 69 -385 119 -585 159 -187 38 -573
90 -789 107 -123 9 -472 11 -596 3z m680 -1014 c4 -6 5 -13 2 -15 -8 -8 -77 7
-77 17 0 13 67 11 75 -2z m-211 -25 c9 -20 11 -20 37 -5 25 14 35 13 132 -8
58 -13 110 -20 117 -16 6 4 15 18 20 31 5 13 16 24 23 24 7 0 48 -18 91 -40
76 -40 106 -48 106 -31 0 5 9 11 21 14 13 4 18 10 13 18 -11 19 72 4 93 -16
15 -16 18 -16 28 -1 15 19 85 22 85 4 0 -7 14 -26 32 -41 31 -27 32 -28 8 -22
-50 12 -135 16 -150 6 -8 -5 -12 -11 -10 -13 3 -2 83 -23 178 -47 321 -79 574
-173 850 -313 97 -50 192 -102 211 -117 18 -14 41 -30 49 -36 92 -57 136 -92
162 -130 35 -51 66 -75 96 -75 15 0 37 -21 72 -67 28 -38 84 -104 124 -149
105 -114 176 -201 216 -262 18 -30 41 -62 50 -71 22 -23 56 -84 53 -95 -1 -4
4 -14 10 -22 9 -11 8 -14 -2 -14 -7 0 -2 -11 13 -27 34 -37 54 -72 62 -107 6
-25 5 -28 -7 -17 -12 9 -16 8 -21 -5 -9 -24 2 -34 39 -34 39 0 51 -12 30 -30
-16 -14 -20 -47 -7 -68 6 -9 12 -6 20 13 6 14 16 25 22 25 18 0 24 -31 11 -52
-8 -13 -9 -18 -1 -13 6 4 21 4 34 1 17 -4 22 -13 23 -41 1 -19 -3 -32 -8 -29
-5 3 0 -11 12 -31 15 -25 19 -43 14 -63 -7 -27 -7 -27 -26 16 -10 23 -23 42
-28 42 -6 0 3 -26 19 -57 17 -32 40 -95 51 -140 20 -78 46 -122 80 -136 12 -5
12 -7 -1 -16 -20 -12 -18 -51 3 -81 9 -14 17 -30 17 -38 0 -7 12 -25 26 -39
27 -27 27 -27 10 -72 -9 -25 -16 -54 -16 -64 0 -23 44 -109 63 -126 11 -9 13
-19 7 -39 -5 -15 -11 -44 -14 -65 -4 -35 -3 -37 15 -32 13 4 27 0 39 -10 16
-14 16 -20 5 -43 -19 -40 -20 -60 -4 -127 11 -46 13 -109 9 -270 -2 -115 -5
-281 -5 -368 0 -135 -2 -157 -15 -157 -9 0 -23 -15 -31 -34 -13 -27 -13 -37
-3 -51 20 -26 11 -111 -14 -138 -23 -24 -39 -81 -47 -168 -7 -66 -36 -117 -74
-132 -26 -10 -29 -16 -33 -69 -3 -46 -16 -82 -59 -166 -30 -59 -55 -109 -57
-112 -2 -2 -7 1 -11 8 -9 15 -41 -60 -41 -97 0 -17 -4 -21 -18 -17 -14 5 -21
-2 -30 -28 -7 -18 -38 -62 -70 -97 -76 -84 -97 -115 -122 -180 -14 -37 -46
-82 -101 -144 -45 -49 -89 -106 -100 -125 -10 -19 -18 -29 -19 -22 0 17 -50
16 -50 -2 0 -8 -15 -36 -33 -62 -18 -27 -38 -61 -45 -77 -9 -22 -16 -26 -36
-21 -30 7 -39 -7 -31 -46 7 -34 29 -39 73 -16 37 19 62 48 130 146 31 46 68
90 82 99 l24 16 -17 -25 c-39 -56 -14 -66 41 -15 31 28 33 33 14 28 l-23 -6
18 39 c9 22 21 45 26 51 14 20 28 5 21 -23 -9 -35 22 -32 41 6 8 16 36 45 62
65 l47 36 18 -23 c25 -33 22 -46 -15 -62 -35 -14 -57 -38 -110 -121 -23 -36
-45 -56 -79 -73 -36 -17 -48 -28 -48 -45 0 -15 -11 -27 -33 -38 -33 -16 -101
-104 -92 -120 8 -11 -48 -39 -80 -39 -27 0 -32 -9 -13 -28 9 -9 4 -12 -23 -12
-41 0 -66 -15 -136 -83 -41 -40 -55 -48 -66 -39 -11 9 -18 5 -35 -17 -12 -16
-56 -49 -99 -73 -74 -41 -76 -43 -46 -46 36 -4 86 19 179 84 36 24 74 44 85
44 12 0 48 26 82 59 34 32 116 97 182 144 66 47 140 106 165 131 39 41 42 46
22 46 -12 0 -22 5 -22 11 0 7 18 10 49 7 l48 -3 63 80 c35 44 104 127 153 184
102 119 219 274 260 344 15 26 30 47 32 47 16 0 -57 -133 -92 -168 -23 -24
-78 -102 -122 -175 -95 -157 -134 -205 -195 -238 -36 -19 -46 -29 -46 -49 0
-15 -12 -44 -27 -67 -16 -22 -47 -69 -71 -104 -31 -46 -50 -64 -65 -65 -32 0
-47 -12 -47 -37 0 -37 -28 -66 -99 -102 -81 -40 -131 -80 -131 -104 0 -10 -31
-38 -77 -68 -43 -29 -103 -69 -135 -91 -31 -21 -127 -69 -215 -107 -87 -37
-178 -78 -203 -90 -25 -12 -64 -26 -88 -30 -29 -5 -48 -15 -58 -31 -23 -35
-77 -64 -115 -63 -67 1 -232 -39 -317 -78 -43 -19 -77 -26 -137 -28 -44 -1
-113 -10 -152 -20 -88 -20 -109 -40 -35 -33 l51 5 -24 -18 c-26 -21 -85 -16
-85 7 0 7 -9 18 -19 24 -24 12 -61 13 -61 1 0 -5 -3 -16 -6 -24 -4 -13 2 -14
35 -10 35 5 40 3 35 -10 -3 -9 -19 -20 -36 -26 -40 -14 -143 -14 -169 0 -13 7
-30 7 -52 0 -18 -5 -67 -14 -109 -18 -63 -7 -78 -6 -80 5 -2 10 -24 15 -80 16
-43 1 -83 -1 -89 -4 -6 -4 19 -16 55 -26 36 -10 66 -22 66 -27 0 -17 -32 -18
-68 -1 -30 15 -58 18 -147 16 -111 -3 -210 10 -510 63 -77 13 -164 25 -192 25
-45 0 -53 3 -53 19 0 25 -67 66 -85 51 -7 -6 -32 -7 -61 -4 -37 5 -57 15 -80
39 -20 19 -51 37 -80 44 -131 34 -153 43 -178 67 -14 15 -29 37 -32 50 -4 17
-16 24 -47 29 -51 9 -99 33 -197 98 -92 62 -87 57 -72 66 8 5 -9 17 -47 35
-46 23 -57 32 -54 47 3 12 0 19 -8 19 -7 0 -59 47 -115 105 -68 70 -118 112
-147 125 -31 14 -73 50 -134 117 -48 53 -101 104 -118 115 -18 10 -24 18 -14
18 24 0 16 38 -12 57 -13 9 -40 31 -60 49 -20 17 -46 35 -58 39 -18 6 -21 12
-15 41 6 34 6 34 -30 34 -33 0 -36 -2 -36 -30 0 -53 37 -107 119 -175 43 -35
87 -77 96 -92 l18 -28 -21 18 c-48 43 -51 -15 -4 -65 27 -29 42 -35 42 -17 0
5 -5 7 -10 4 -10 -6 -26 22 -17 31 2 3 25 -9 51 -26 47 -32 53 -56 10 -46 -32
8 -30 -8 4 -33 15 -11 41 -43 56 -71 30 -55 30 -54 -17 -81 -13 -8 -19 -6 -24
8 -23 65 -37 85 -85 120 -67 50 -77 63 -93 115 -10 34 -17 44 -37 46 -20 2
-27 10 -32 34 -7 36 -78 108 -106 108 -25 0 -40 29 -40 75 0 33 -2 36 -21 30
-15 -5 -19 -4 -14 5 15 24 -8 82 -56 147 -46 60 -49 68 -34 79 15 11 15 13 -4
23 -11 7 -39 50 -62 98 -33 70 -43 83 -51 69 -14 -25 -1 -71 48 -169 24 -48
44 -96 44 -108 0 -11 20 -48 44 -82 24 -34 64 -100 89 -147 35 -67 44 -92 40
-117 -3 -18 -8 -33 -12 -33 -15 0 -218 190 -249 234 -34 47 -37 91 -6 79 11
-4 14 5 14 41 0 35 -4 48 -17 53 -10 3 -26 13 -35 21 -14 12 -21 12 -32 3 -12
-10 -16 -8 -22 11 -4 12 -15 34 -25 48 -10 14 -47 120 -83 235 -69 224 -101
317 -135 383 -17 34 -21 59 -21 139 0 64 -8 131 -22 193 -16 70 -21 122 -19
195 2 92 -11 220 -24 233 -12 12 -19 -12 -17 -61 2 -50 -10 -88 -23 -75 -16
15 -16 205 -1 359 9 92 16 194 16 228 0 48 3 61 15 61 10 0 15 10 15 30 0 16
5 52 11 80 6 28 8 54 5 57 -9 9 -74 -139 -82 -185 -4 -28 -13 -43 -25 -47 -17
-6 -19 -18 -19 -133 0 -148 -12 -206 -40 -197 -15 5 -20 -2 -29 -45 -6 -28
-11 -59 -11 -70 0 -41 -19 -27 -31 22 -10 38 -14 146 -14 387 -1 323 0 335 20
356 11 12 25 30 31 40 8 15 10 1 7 -60 -4 -61 -1 -85 10 -100 14 -18 15 -15
22 40 90 791 331 1409 745 1914 l75 91 5 -62 5 -62 66 79 c36 44 100 123 141
176 42 53 98 121 124 150 50 57 174 169 187 169 18 0 4 -28 -35 -69 -24 -25
-34 -38 -23 -29 33 26 78 45 125 53 25 4 54 12 65 18 19 10 18 12 -9 17 -17 3
-30 7 -30 10 -2 13 116 110 133 110 11 0 48 19 83 43 93 63 97 65 56 19 -43
-48 -48 -66 -15 -57 51 14 68 28 65 54 -3 25 -1 26 47 23 47 -3 51 -1 68 28 9
18 17 38 17 46 0 8 3 15 8 15 4 1 16 3 27 4 11 1 47 15 80 29 213 96 445 172
562 185 104 11 203 47 168 61 -18 8 -17 9 6 9 17 1 32 -7 42 -21 14 -22 16
-22 33 -7 12 11 46 19 94 23 182 16 188 17 193 37 5 17 12 19 59 15 29 -2 60
-4 70 -5 11 -1 15 -7 11 -21 -6 -23 -2 -24 50 -9 26 7 37 15 33 24 -5 14 16
24 44 21 8 0 19 -11 24 -22z m477 -6 c39 -11 53 -28 24 -28 -19 0 -85 27 -85
34 0 9 19 7 61 -6z m-2098 -355 c-11 -31 -14 -33 -35 -22 -21 11 -21 12 3 25
32 18 40 17 32 -3z m-813 -5383 c5 0 13 8 19 18 9 15 10 15 16 1 3 -9 2 -32
-3 -50 -9 -33 -7 -36 67 -113 68 -70 72 -76 36 -56 -111 65 -297 221 -282 237
7 6 45 -14 80 -43 42 -35 56 -29 20 9 -32 32 -44 56 -57 112 -6 23 5 13 44
-42 28 -40 55 -73 60 -73z m322 -481 c25 -7 31 -5 35 11 3 11 8 20 10 20 3 0
40 -31 82 -68 115 -104 209 -175 286 -219 83 -48 422 -217 586 -293 105 -48
115 -55 111 -76 -4 -22 -1 -24 42 -24 34 0 46 -4 46 -15 0 -28 -87 -18 -180
20 -47 20 -103 38 -125 41 -22 3 -59 20 -83 36 -24 16 -112 63 -196 103 -89
43 -173 91 -200 114 -26 23 -53 41 -59 41 -7 0 -39 21 -72 46 -33 25 -85 63
-115 83 -30 20 -56 44 -58 52 -6 24 -21 34 -34 21 -22 -22 -45 -14 -51 18 -4
17 -27 49 -54 76 -28 27 -38 41 -24 34 13 -7 37 -16 53 -21z"/>
<path d="M8355 8216 c-143 -33 -258 -95 -356 -191 -121 -119 -187 -245 -215
-410 -43 -253 52 -506 253 -675 71 -60 152 -105 248 -137 72 -24 95 -27 220
-27 124 0 149 3 217 26 123 41 204 92 298 187 145 146 211 306 212 511 1 201
-67 365 -212 511 -144 146 -287 208 -490 215 -75 2 -136 -1 -175 -10z m330
-41 c243 -65 442 -270 500 -517 19 -81 19 -235 0 -316 -85 -359 -445 -597
-801 -529 -340 65 -574 344 -574 687 0 337 227 615 560 686 80 17 231 12 315
-11z"/>
<path d="M8375 7913 c-161 -58 -270 -185 -297 -347 -30 -184 67 -368 240 -453
74 -37 79 -38 187 -38 108 0 113 1 187 38 324 160 325 614 1 774 -69 34 -84
38 -172 40 -73 3 -108 -1 -146 -14z m210 -236 c-36 -68 -65 -127 -65 -130 0
-3 38 -8 84 -9 l85 -3 -170 -175 -169 -175 65 133 65 132 -92 0 -93 0 175 175
c96 96 176 175 178 175 1 0 -27 -56 -63 -123z"/>
<path d="M9843 7790 c-72 -23 -97 -110 -48 -169 14 -16 49 -39 78 -49 29 -11
52 -26 52 -33 0 -20 -30 -23 -48 -4 -10 9 -33 15 -61 15 l-46 0 0 -44 c0 -40
3 -45 31 -55 41 -14 157 -14 197 0 41 14 62 49 62 104 0 56 -27 86 -101 110
-28 10 -49 23 -49 31 0 16 36 19 45 4 3 -5 26 -10 51 -10 l44 0 0 40 c0 35 -4
42 -27 51 -39 16 -142 20 -180 9z"/>
<path d="M10177 7786 c-74 -27 -98 -68 -100 -165 -1 -126 52 -181 176 -181 35
0 78 5 96 11 30 11 31 12 31 75 l0 64 -50 0 c-43 0 -50 -3 -50 -19 0 -35 -12
-51 -36 -51 -24 0 -24 1 -24 95 0 76 3 97 15 101 21 9 45 -14 45 -42 0 -22 4
-24 50 -24 l50 0 0 60 c0 57 -2 61 -27 71 -46 18 -135 21 -176 5z"/>
<path d="M11975 7788 c-70 -25 -98 -75 -98 -174 0 -121 51 -174 166 -174 101
0 149 35 169 122 20 90 -15 187 -77 217 -39 19 -122 24 -160 9z m95 -87 c11
-21 14 -139 4 -165 -3 -9 -16 -16 -29 -16 -27 0 -35 22 -35 103 0 63 12 97 35
97 8 0 19 -9 25 -19z"/>
<path d="M9486 7738 c-8 -29 -25 -90 -37 -135 -12 -46 -26 -83 -31 -83 -4 0
-8 -18 -8 -40 l0 -40 75 0 75 0 0 40 c0 22 -4 40 -10 40 -5 0 -10 7 -10 15 0
10 10 15 29 15 35 0 51 -19 27 -32 -10 -6 -16 -22 -16 -43 l0 -35 90 0 90 0 0
36 c0 19 -6 41 -13 49 -8 7 -28 70 -47 139 l-33 126 -83 0 -83 0 -15 -52z
m103 -120 c1 -12 -6 -18 -19 -18 -17 0 -19 5 -14 28 11 52 16 59 24 32 5 -14
8 -33 9 -42z"/>
<path d="M10400 7755 c0 -19 5 -35 10 -35 6 0 10 -34 10 -82 0 -158 30 -198
148 -198 71 0 114 19 131 57 6 13 11 67 11 119 0 75 3 96 15 100 9 4 15 19 15
40 l0 34 -80 0 -80 0 0 -35 c0 -19 5 -35 10 -35 6 0 10 -40 10 -100 l0 -100
-25 0 -25 0 0 100 c0 60 4 100 10 100 6 0 10 16 10 35 l0 35 -85 0 -85 0 0
-35z"/>
<path d="M10750 7756 c0 -21 6 -36 15 -40 12 -4 15 -25 15 -100 0 -74 -3 -95
-15 -100 -9 -3 -15 -19 -15 -41 l0 -35 155 0 156 0 -3 73 -3 72 -47 3 -48 3 0
-35 c0 -33 -2 -36 -30 -36 -28 0 -30 3 -30 36 0 27 5 37 20 41 13 3 20 14 20
29 0 17 -6 24 -20 24 -16 0 -20 7 -20 36 0 33 2 35 28 32 21 -2 28 -9 30 -30
3 -26 6 -28 53 -28 l49 0 0 65 0 65 -155 0 -155 0 0 -34z"/>
<path d="M11180 7756 c0 -25 4 -36 15 -36 23 0 22 -195 -1 -204 -10 -4 -14
-16 -12 -38 l3 -33 95 0 95 0 0 35 c0 29 -4 36 -22 38 -18 3 -23 10 -23 33 0
27 2 29 40 29 57 0 108 24 120 55 17 45 12 92 -14 122 -24 28 -25 28 -160 31
l-136 4 0 -36z m188 -70 c3 -28 -13 -50 -30 -40 -4 3 -8 21 -8 40 0 28 4 35
18 32 10 -2 18 -14 20 -32z"/>
<path d="M11520 7755 c0 -19 5 -35 10 -35 6 0 10 -40 10 -100 0 -60 -4 -100
-10 -100 -5 0 -10 -18 -10 -40 l0 -40 85 0 85 0 0 40 c0 29 -4 40 -15 40 -10
0 -15 11 -15 35 0 27 4 35 18 35 31 0 42 -22 42 -87 l0 -63 70 0 70 0 0 40 c0
22 -4 40 -10 40 -5 0 -10 11 -10 25 0 14 -8 33 -18 43 -18 18 -18 19 0 42 29
36 24 96 -11 131 l-29 29 -131 0 -131 0 0 -35z m188 -71 c3 -31 -18 -52 -39
-38 -11 6 -12 58 -2 68 16 16 38 -1 41 -30z"/>
<path d="M11087 7513 c-4 -3 -7 -21 -7 -40 0 -31 2 -33 35 -33 34 0 35 1 35
40 0 37 -2 40 -28 40 -16 0 -32 -3 -35 -7z"/>
<path d="M10219 7335 c-2 -11 -2 -38 2 -60 l6 -40 2 38 c0 22 6 37 14 37 8 0
9 3 1 8 -6 4 -13 14 -16 22 -3 11 -6 9 -9 -5z"/>
<path d="M10708 7333 c-5 -27 3 -93 12 -93 9 0 17 66 12 93 -2 9 -7 17 -12 17
-5 0 -10 -8 -12 -17z"/>
<path d="M9414 7306 c-13 -33 0 -61 30 -64 16 -2 33 1 38 6 7 7 -1 10 -22 9
-19 -1 -35 3 -37 11 -3 8 7 12 31 12 38 0 44 8 24 28 -17 17 -57 15 -64 -2z
m56 -6 c0 -5 -12 -10 -26 -10 -14 0 -23 4 -19 10 3 6 15 10 26 10 10 0 19 -4
19 -10z"/>
<path d="M9511 7278 l2 -43 6 35 c4 26 11 35 26 35 15 0 22 -9 27 -35 l6 -35
-1 40 c-2 37 -4 40 -34 43 -33 3 -33 3 -32 -40z"/>
<path d="M9605 7300 c-11 -35 3 -60 35 -60 16 0 31 4 34 9 3 5 -8 8 -25 7 -18
0 -34 5 -36 12 -3 8 7 12 32 12 30 0 36 3 31 16 -3 9 -6 18 -6 20 0 2 -13 4
-29 4 -21 0 -32 -6 -36 -20z m60 0 c4 -6 -7 -10 -25 -10 -18 0 -29 4 -25 10 3
6 15 10 25 10 10 0 22 -4 25 -10z"/>
<path d="M9701 7275 l2 -40 6 34 c4 21 14 37 26 42 17 6 15 7 -7 6 -26 -1 -28
-4 -27 -42z"/>
<path d="M9760 7300 c-15 -29 4 -60 36 -60 32 0 27 -22 -7 -31 -24 -7 -24 -7
3 -8 33 -1 48 23 48 78 0 40 -1 41 -35 41 -24 0 -37 -6 -45 -20z m64 -5 c8
-23 -4 -45 -25 -45 -11 0 -22 7 -25 15 -9 23 3 45 25 45 10 0 21 -7 25 -15z"/>
<path d="M9866 7283 c9 -20 14 -47 11 -60 -8 -43 8 -23 30 37 23 64 22 82 -2
28 l-14 -33 -13 33 c-7 17 -16 32 -20 32 -4 0 0 -17 8 -37z"/>
<path d="M9981 7278 c1 -44 3 -43 13 5 9 41 36 35 36 -8 0 -19 5 -35 10 -35 6
0 10 16 10 36 0 28 3 35 18 32 10 -2 19 -16 24 -38 l6 -35 -1 40 -2 40 -57 3
-58 2 1 -42z"/>
<path d="M10124 7306 c-3 -8 -4 -25 -2 -38 2 -18 10 -24 36 -26 17 -2 32 1 32
5 0 5 -12 9 -27 8 -14 0 -28 6 -30 13 -3 8 7 12 31 12 38 0 44 8 24 28 -17 17
-57 15 -64 -2z m56 -6 c0 -5 -12 -10 -26 -10 -14 0 -23 4 -19 10 3 6 15 10 26
10 10 0 19 -4 19 -10z"/>
<path d="M10265 7301 c-11 -36 3 -61 35 -61 16 0 31 3 33 8 3 4 -9 7 -25 7
-17 0 -33 6 -35 13 -3 8 7 12 32 12 29 0 36 3 33 18 -2 11 -14 18 -35 20 -24
2 -33 -1 -38 -17z m60 -1 c4 -6 -5 -10 -19 -10 -14 0 -26 5 -26 10 0 6 9 10
19 10 11 0 23 -4 26 -10z"/>
<path d="M10361 7275 l2 -40 6 34 c4 21 14 37 26 42 17 6 15 7 -7 6 -26 -1
-28 -4 -27 -42z"/>
<path d="M10460 7305 c0 -9 11 -20 25 -25 14 -5 25 -15 25 -21 0 -7 -10 -9
-25 -7 -14 3 -25 1 -25 -3 0 -5 14 -9 30 -9 39 0 43 36 5 46 -14 3 -25 11 -25
16 0 6 11 8 25 6 14 -3 25 -1 25 3 0 5 -13 9 -30 9 -20 0 -30 -5 -30 -15z"/>
<path d="M10541 7317 c-1 -4 6 -24 14 -44 9 -20 13 -46 10 -57 -7 -28 30 52
39 84 5 19 3 18 -12 -8 l-18 -33 -16 33 c-9 18 -17 29 -17 25z"/>
<path d="M10627 7313 c-14 -13 -6 -24 23 -34 39 -14 39 -33 0 -27 -19 3 -27 1
-21 -5 12 -12 53 -5 59 10 2 7 -8 18 -22 24 -34 16 -34 33 0 25 17 -5 23 -3
19 4 -7 11 -48 14 -58 3z"/>
<path d="M10760 7301 c-15 -29 3 -61 35 -61 13 0 26 4 29 8 3 5 -8 6 -25 4
-22 -3 -29 0 -29 12 0 11 9 16 31 16 24 0 30 4 27 18 -5 26 -54 28 -68 3z m60
-1 c0 -5 -12 -10 -26 -10 -14 0 -23 4 -19 10 3 6 15 10 26 10 10 0 19 -4 19
-10z"/>
<path d="M10850 7280 c0 -22 5 -40 10 -40 6 0 10 16 10 35 0 43 27 49 36 8 10
-48 12 -49 13 -10 1 31 4 38 19 35 10 -2 19 -16 24 -38 l6 -35 -1 40 -2 40
-57 3 -58 2 0 -40z"/>
<path d="M10997 7313 c-13 -12 -7 -24 18 -33 14 -5 25 -15 25 -21 0 -7 -10 -9
-25 -7 -14 3 -25 1 -25 -4 0 -14 63 -5 68 10 2 7 -9 18 -27 25 -37 14 -41 31
-6 25 14 -3 25 -1 25 3 0 10 -44 12 -53 2z"/>
<path d="M7222 5452 c-14 -9 14 -40 56 -62 32 -16 34 -10 14 31 -17 34 -45 47
-70 31z"/>
</g>
</svg>
