<?xml version="1.0" standalone="no"?>
<!DOCTYPE svg PUBLIC "-//W3C//DTD SVG 20010904//EN"
 "http://www.w3.org/TR/2001/REC-SVG-20010904/DTD/svg10.dtd">
<svg version="1.0" xmlns="http://www.w3.org/2000/svg"
 width="743.000000pt" height="338.000000pt" viewBox="0 0 743.000000 338.000000"
 preserveAspectRatio="xMidYMid meet">

<g transform="translate(0.000000,338.000000) scale(0.100000,-0.100000)"
fill="#000000" stroke="none">
<path d="M1508 2630 c-297 -54 -572 -268 -704 -545 -59 -125 -85 -234 -91
-385 -7 -152 9 -249 63 -382 100 -249 258 -415 507 -533 141 -67 186 -75 402
-75 l187 0 106 35 c169 57 269 122 402 261 198 207 278 418 267 704 -10 273
-103 469 -315 672 -135 128 -265 199 -427 233 -92 19 -328 28 -397 15z m282
-40 c217 -25 378 -103 542 -262 203 -197 300 -472 268 -763 -25 -235 -130
-436 -308 -590 -195 -169 -409 -245 -652 -232 -171 10 -339 66 -484 162 -176
116 -311 307 -368 515 -20 74 -23 108 -23 260 1 173 1 176 36 280 96 287 304
495 589 591 137 46 246 57 400 39z"/>
<path d="M1550 2233 c-14 -2 -63 -23 -110 -45 -155 -74 -272 -215 -316 -380
-18 -69 -18 -208 1 -278 43 -161 158 -298 319 -380 l88 -45 148 0 148 0 97 49
c209 106 325 290 325 516 0 157 -57 299 -165 405 -72 72 -193 138 -279 154
-58 11 -205 13 -256 4z m230 -343 c-44 -88 -77 -161 -73 -161 5 -1 56 -4 114
-8 l107 -6 -224 -228 -224 -229 80 163 c44 90 80 167 80 171 0 4 -55 8 -122 8
l-123 1 227 224 c125 124 230 225 233 225 3 0 -31 -72 -75 -160z"/>
<path d="M2994 2003 c-53 -190 -87 -299 -95 -308 -5 -5 -9 -31 -9 -57 l0 -48
100 0 100 0 0 44 c0 26 -6 51 -15 60 -21 20 -19 33 6 39 24 6 69 -8 69 -22 0
-4 -7 -14 -15 -21 -9 -8 -15 -30 -15 -56 l0 -44 115 0 115 0 0 44 c0 24 -9 63
-19 87 -18 39 -59 176 -91 297 l-11 42 -109 0 -109 0 -17 -57z m130 -154 c4
-18 1 -31 -9 -39 -23 -19 -38 -2 -30 39 12 62 24 62 39 0z"/>
<path d="M3438 2045 c-38 -21 -68 -75 -68 -122 0 -60 33 -101 120 -148 40 -22
75 -46 78 -52 6 -21 -26 -26 -53 -9 -14 9 -52 19 -85 23 l-60 6 0 -56 c0 -82
19 -92 170 -92 98 0 120 3 150 21 45 26 60 56 60 125 0 74 -22 101 -116 144
-46 21 -74 40 -74 49 0 20 14 20 65 1 22 -8 57 -14 78 -15 l37 0 0 50 c0 72
-22 84 -165 88 -83 2 -116 -1 -137 -13z"/>
<path d="M3884 2040 c-77 -39 -103 -90 -104 -205 0 -131 39 -200 132 -231 63
-20 206 -14 244 11 22 14 24 22 24 95 l0 80 -60 0 c-40 0 -62 -4 -64 -12 -18
-68 -22 -73 -54 -76 l-32 -3 0 118 c0 124 6 147 35 141 19 -3 29 -17 45 -60 9
-26 13 -28 70 -28 l60 0 0 75 c0 70 -2 76 -27 92 -20 14 -52 19 -128 21 -85 2
-106 0 -141 -18z"/>
<path d="M4210 2017 c0 -24 4 -47 9 -52 5 -6 13 -69 19 -142 12 -147 25 -184
75 -209 48 -25 157 -30 211 -10 81 31 89 47 95 200 5 108 9 138 24 153 10 12
17 36 17 61 l0 42 -105 0 -105 0 0 -43 c0 -24 4 -47 9 -52 5 -6 12 -67 16
-137 l7 -128 -37 0 -37 0 6 128 c3 70 8 151 12 180 l6 52 -111 0 -111 0 0 -43z"/>
<path d="M4680 2018 c0 -23 7 -49 15 -58 12 -14 16 -43 16 -135 0 -92 -4 -121
-16 -135 -8 -9 -15 -35 -15 -58 l0 -42 206 0 207 0 -8 93 c-4 50 -9 94 -11 96
-2 2 -29 6 -59 9 l-55 4 0 -30 c0 -17 -3 -37 -6 -46 -8 -21 -70 -22 -78 -1
-10 27 6 74 31 90 30 20 28 59 -3 63 -16 2 -23 12 -27 39 -7 44 -3 53 26 53
30 0 43 -11 50 -41 8 -30 30 -39 95 -39 l42 0 0 90 0 90 -205 0 -205 0 0 -42z"/>
<path d="M5250 2015 c0 -31 5 -47 18 -54 15 -8 17 -26 17 -129 0 -100 -3 -123
-17 -139 -10 -11 -18 -35 -18 -56 l0 -37 130 0 130 0 0 41 c0 36 -3 42 -30 52
-25 9 -30 17 -30 43 0 36 13 44 71 44 52 0 100 21 127 55 34 43 31 130 -6 175
-28 33 -30 34 -138 41 -60 4 -142 8 -181 8 l-73 1 0 -45z m240 -74 c15 -28 12
-57 -6 -72 -21 -17 -34 3 -34 54 0 41 22 51 40 18z"/>
<path d="M5700 2026 c0 -18 7 -50 15 -69 10 -23 15 -69 15 -127 0 -58 -5 -104
-15 -127 -8 -19 -15 -53 -15 -74 l0 -39 115 0 115 0 0 39 c0 49 -8 71 -27 71
-11 0 -13 11 -11 43 2 34 7 43 24 45 34 5 47 -23 52 -114 l5 -84 88 0 89 0 0
49 c0 28 -4 53 -10 56 -5 3 -10 16 -10 28 0 12 -9 37 -20 55 l-21 34 21 42
c32 67 23 116 -33 174 l-31 32 -173 0 -173 0 0 -34z m239 -80 c17 -20 10 -67
-12 -80 -22 -14 -37 6 -37 50 0 45 24 60 49 30z"/>
<path d="M6278 2040 c-72 -39 -102 -113 -96 -236 5 -97 27 -146 81 -182 37
-25 49 -27 136 -27 102 1 137 12 177 57 32 36 54 103 54 166 0 110 -36 182
-110 220 -59 30 -187 31 -242 2z m152 -96 c17 -19 25 -157 13 -204 -7 -27 -15
-36 -34 -38 -14 -2 -31 3 -38 11 -16 20 -16 185 0 220 14 30 40 35 59 11z"/>
<path d="M5132 1691 c-9 -5 -12 -24 -10 -52 3 -42 5 -44 37 -47 20 -2 37 2 42
10 13 19 11 72 -3 86 -14 14 -47 16 -66 3z"/>
<path d="M4626 1463 c-8 -9 -6 -103 3 -127 7 -18 8 -18 14 5 16 59 5 143 -17
122z"/>
<path d="M3971 1398 c1 -35 4 -49 6 -33 3 17 9 35 15 42 9 11 -5 53 -17 53 -3
0 -4 -28 -4 -62z"/>
<path d="M2902 1418 c-7 -7 -12 -24 -12 -38 0 -36 18 -50 60 -49 l35 1 -30 10
c-63 21 -61 20 -40 28 11 5 32 9 48 9 32 1 37 25 8 41 -26 13 -54 13 -69 -2z
m52 -4 c22 -9 10 -24 -20 -24 -25 0 -33 15 -11 23 6 3 13 6 14 6 1 1 8 -2 17
-5z"/>
<path d="M3026 1414 c-3 -9 -6 -30 -5 -47 l1 -32 12 35 c18 49 52 53 65 8 l9
-33 1 32 c1 22 -5 36 -18 43 -29 15 -58 12 -65 -6z"/>
<path d="M3155 1406 c-31 -47 14 -98 67 -77 20 8 18 10 -19 16 -54 9 -55 23
-2 31 33 6 40 10 37 28 -5 33 -62 35 -83 2z m75 -11 c0 -3 -17 -5 -37 -5 -35
1 -37 2 -19 15 13 10 24 11 37 4 11 -5 19 -12 19 -14z"/>
<path d="M3373 1415 c-43 -30 -15 -95 39 -95 27 0 22 -17 -9 -34 -21 -11 -23
-15 -10 -16 10 0 29 11 43 25 21 22 25 33 22 78 -3 50 -4 52 -33 55 -16 1 -40
-4 -52 -13z m57 -9 c6 -8 10 -25 8 -38 -2 -18 -9 -23 -33 -23 -24 0 -31 5 -33
24 -3 15 3 30 14 38 23 17 29 16 44 -1z"/>
<path d="M3496 1383 c8 -25 14 -60 14 -77 0 -42 15 -24 40 48 21 63 21 88 0
36 -16 -38 -24 -38 -40 0 -20 49 -29 44 -14 -7z"/>
<path d="M3651 1378 l0 -53 15 48 c18 58 35 57 48 -1 11 -52 26 -55 26 -4 0
21 5 43 12 50 9 9 -1 12 -45 12 l-57 0 1 -52z"/>
<path d="M3852 1421 c-8 -5 -12 -23 -10 -47 3 -39 3 -39 48 -41 39 -1 41 -1
14 6 -48 12 -61 23 -38 32 10 4 31 8 47 8 32 1 34 11 9 34 -20 18 -49 22 -70
8z m56 -19 c2 -7 -7 -12 -22 -12 -27 0 -35 15 -13 23 17 7 30 3 35 -11z"/>
<path d="M4044 1422 c-18 -11 -26 -50 -15 -70 12 -23 55 -36 78 -24 11 7 5 11
-26 16 -52 8 -53 24 -1 32 43 7 53 27 21 44 -23 12 -42 13 -57 2z m52 -17 c18
-14 18 -14 -8 -15 -27 0 -43 12 -31 24 9 9 17 8 39 -9z"/>
<path d="M4294 1418 c-4 -6 6 -22 25 -37 39 -33 39 -41 -1 -41 -29 -1 -31 -2
-14 -11 13 -8 25 -8 42 0 34 15 30 35 -12 54 -38 19 -37 42 2 33 14 -4 24 -2
24 4 0 14 -57 13 -66 -2z"/>
<path d="M4510 1416 c-9 -12 -4 -20 32 -43 l43 -28 -40 -6 -40 -6 37 -2 c51
-2 58 17 17 50 l-34 28 35 1 c26 0 31 3 20 10 -22 14 -56 12 -70 -4z"/>
<path d="M4713 1420 c-24 -10 -37 -39 -27 -64 9 -24 51 -39 72 -26 13 7 9 9
-20 10 -54 0 -52 28 2 36 43 7 53 27 21 44 -22 11 -19 11 -48 0z m41 -6 c22
-9 10 -24 -20 -24 -25 0 -33 15 -11 23 6 3 13 6 14 6 1 1 8 -2 17 -5z"/>
<path d="M4810 1380 c0 -61 14 -65 26 -8 12 56 29 58 47 6 l15 -43 1 36 c1 19
6 40 13 47 9 9 -1 12 -45 12 l-57 0 0 -50z"/>
<path d="M5013 1423 c-22 -8 -14 -32 17 -48 39 -20 38 -33 -2 -38 -27 -4 -25
-4 7 -3 53 1 58 26 10 49 -40 19 -38 41 2 31 18 -5 24 -3 19 5 -7 11 -31 13
-53 4z"/>
<path d="M3281 1383 c0 -35 1 -36 10 -14 5 14 15 31 21 38 8 10 6 13 -11 13
-18 0 -21 -6 -20 -37z"/>
<path d="M3777 1408 c6 -7 15 -26 22 -43 9 -23 10 -24 6 -5 -2 14 -5 33 -5 43
0 9 -7 17 -16 17 -12 0 -14 -4 -7 -12z"/>
<path d="M4161 1383 c0 -35 1 -36 10 -14 5 14 15 31 21 38 8 10 6 13 -11 13
-18 0 -21 -6 -20 -37z"/>
<path d="M4405 1404 c3 -12 11 -41 19 -65 l13 -44 15 36 c9 20 19 47 22 60 6
22 5 22 -9 -3 -20 -36 -28 -35 -48 5 -10 17 -15 23 -12 11z"/>
<path d="M4937 1408 c6 -7 15 -26 22 -43 9 -23 10 -24 6 -5 -2 14 -5 33 -5 43
0 9 -7 17 -16 17 -12 0 -14 -4 -7 -12z"/>
</g>
</svg>
