<?xml version="1.0" standalone="no"?>
<!DOCTYPE svg PUBLIC "-//W3C//DTD SVG 20010904//EN"
 "http://www.w3.org/TR/2001/REC-SVG-20010904/DTD/svg10.dtd">
<svg version="1.0" xmlns="http://www.w3.org/2000/svg"
 width="338.000000pt" height="338.000000pt" viewBox="0 0 338.000000 338.000000"
 preserveAspectRatio="xMidYMid meet">

<g transform="translate(0.000000,338.000000) scale(0.100000,-0.100000)"
fill="#000000" stroke="none">
<path d="M567 3155 c-50 -17 -85 -50 -108 -100 -17 -37 -19 -72 -19 -425 0
-212 -4 -390 -8 -396 -15 -23 -52 -34 -112 -34 -110 0 -174 -55 -187 -159 -8
-67 17 -132 64 -168 29 -23 48 -28 125 -33 72 -5 94 -11 104 -25 11 -15 14
-102 14 -449 0 -417 1 -431 21 -474 34 -70 83 -96 193 -102 l91 -5 5 -95 5
-95 93 -3 92 -3 0 -242 c0 -133 4 -248 8 -255 7 -9 40 -12 133 -10 l124 3 5
250 5 250 67 3 68 3 2 -253 3 -253 124 -3 c93 -2 126 1 133 10 4 7 8 122 8
256 l0 242 65 0 65 0 2 -252 3 -253 130 0 130 0 3 253 2 252 65 0 65 0 2 -252
3 -253 130 0 130 0 3 252 2 252 98 3 97 3 3 98 3 97 75 0 c89 0 138 21 181 77
l28 36 5 448 c5 413 6 450 23 466 13 13 40 19 102 24 94 6 122 20 163 80 21
29 23 44 20 105 -3 59 -8 77 -31 107 -38 50 -59 60 -155 67 -58 5 -88 12 -100
24 -15 15 -18 58 -22 419 -5 397 -5 402 -28 439 -14 23 -42 46 -74 62 l-52 26
-1075 0 c-885 -1 -1083 -3 -1114 -15z m2223 -71 c64 -38 60 32 60 -1104 0
-1138 4 -1070 -63 -1110 -31 -19 -58 -20 -1107 -20 -1201 0 -1122 -5 -1162 70
-17 33 -18 85 -18 1053 0 1105 -2 1060 55 1105 l28 22 1089 0 c991 0 1092 -1
1118 -16z m-2350 -1062 l0 -127 -82 4 c-126 5 -162 32 -161 122 1 87 30 111
143 120 41 3 81 6 88 7 9 2 12 -29 12 -126z m2657 107 c62 -23 82 -142 33
-194 -25 -26 -46 -32 -152 -38 l-68 -5 0 127 0 128 83 -5 c45 -3 92 -8 104
-13z m-539 -1411 l3 -68 -876 0 -875 0 0 70 0 70 873 -2 872 -3 3 -67z m-1408
-353 l0 -225 -70 0 -70 0 0 225 0 225 70 0 70 0 0 -225z m400 0 l0 -225 -70 0
-70 0 0 225 0 225 70 0 70 0 0 -225z m408 -2 l2 -223 -75 0 -75 0 0 225 0 226
73 -3 72 -3 3 -222z m402 2 l0 -225 -70 0 -70 0 0 225 0 225 70 0 70 0 0 -225z"/>
<path d="M724 2950 c-11 -4 -33 -22 -47 -40 l-27 -32 0 -907 0 -908 22 -28
c45 -57 8 -55 1015 -55 864 0 930 1 962 18 19 9 44 30 55 45 21 28 21 34 21
925 0 827 -1 899 -17 928 -37 67 14 64 -1025 63 -516 0 -947 -4 -959 -9z
m1922 -74 c12 -17 14 -156 14 -905 0 -809 -1 -886 -17 -903 -15 -17 -58 -18
-959 -18 l-943 0 -15 22 c-14 20 -16 122 -16 904 l0 883 27 20 c26 21 26 21
960 19 912 -3 935 -3 949 -22z"/>
<path d="M807 2813 c-13 -3 -17 -12 -15 -31 2 -22 8 -27 32 -27 39 0 59 31 32
51 -11 8 -22 13 -25 13 -3 -1 -14 -3 -24 -6z"/>
<path d="M2518 2809 c-27 -15 -22 -47 7 -55 46 -11 75 35 36 56 -23 12 -22 12
-43 -1z"/>
<path d="M995 2662 c-96 -2 -142 -6 -147 -15 -13 -21 -10 -401 4 -415 17 -17
1639 -17 1656 0 14 14 17 394 4 416 -7 10 -152 13 -693 15 -376 1 -747 1 -824
-1z m115 -217 l0 -155 -100 0 -100 0 0 155 0 155 100 0 100 0 0 -155z m270 0
l0 -155 -105 0 -105 0 0 155 0 155 105 0 105 0 0 -155z m270 0 l0 -155 -105 0
-105 0 0 155 0 155 105 0 105 0 0 -155z m270 0 l0 -155 -105 0 -105 0 0 155 0
155 105 0 105 0 0 -155z m268 -2 l3 -153 -106 0 -105 0 0 155 0 156 103 -3
102 -3 3 -152z m262 2 l0 -155 -100 0 -100 0 0 155 0 155 100 0 100 0 0 -155z"/>
<path d="M993 2523 c-20 -7 -18 -152 2 -159 30 -12 45 15 45 82 0 50 -4 65
-17 72 -10 5 -24 7 -30 5z"/>
<path d="M1263 2523 c-20 -7 -18 -152 2 -159 30 -12 45 15 45 82 0 50 -4 65
-17 72 -10 5 -24 7 -30 5z"/>
<path d="M1527 2519 c-23 -13 -25 -130 -2 -149 31 -26 45 -5 45 68 0 75 -12
98 -43 81z"/>
<path d="M1797 2518 c-23 -12 -24 -129 -2 -148 32 -26 45 -5 45 74 0 77 -9 93
-43 74z"/>
<path d="M2067 2518 c-23 -12 -24 -129 -2 -148 32 -26 45 -5 45 74 0 77 -9 93
-43 74z"/>
<path d="M2337 2518 c-23 -12 -24 -129 -2 -148 32 -26 45 -5 45 74 0 77 -9 93
-43 74z"/>
<path d="M881 2074 c-38 -32 -49 -80 -27 -122 34 -66 -17 -62 826 -62 843 0
792 -4 826 62 22 42 11 90 -27 122 l-31 26 -768 0 -768 0 -31 -26z m569 -79
l0 -45 -251 0 c-153 0 -258 4 -270 10 -21 12 -25 50 -7 68 9 9 83 12 270 12
l258 0 0 -45z m988 33 c18 -18 14 -56 -7 -68 -13 -6 -177 -10 -465 -10 l-446
0 0 45 0 45 453 0 c339 0 456 -3 465 -12z"/>
<path d="M1662 1758 c-20 -25 -121 -290 -115 -303 3 -11 30 -15 98 -17 l93 -3
-44 -114 c-25 -63 -43 -122 -42 -130 2 -10 14 -16 28 -16 22 0 30 13 81 145
71 181 72 180 -51 180 l-89 0 44 106 c48 114 54 148 29 158 -21 8 -20 8 -32
-6z"/>
<path d="M881 1487 c-18 -23 -2 -49 28 -45 20 2 26 8 26 28 0 29 -34 40 -54
17z"/>
<path d="M1014 1485 c-10 -25 4 -45 30 -45 28 0 37 17 24 43 -11 21 -46 23
-54 2z"/>
<path d="M1144 1485 c-10 -25 4 -45 31 -45 30 0 43 24 25 45 -16 19 -49 19
-56 0z"/>
<path d="M1280 1485 c-19 -23 -4 -47 27 -43 31 3 44 35 21 49 -19 13 -34 11
-48 -6z"/>
<path d="M1991 1487 c-18 -23 -2 -49 28 -45 20 2 26 8 26 28 0 29 -34 40 -54
17z"/>
<path d="M2121 1483 c-13 -26 1 -45 30 -41 18 2 24 9 24 28 0 32 -39 41 -54
13z"/>
<path d="M2254 1485 c-10 -25 4 -45 30 -45 28 0 37 17 24 43 -11 21 -46 23
-54 2z"/>
<path d="M2384 1485 c-10 -25 4 -45 31 -45 30 0 43 24 25 45 -16 19 -49 19
-56 0z"/>
<path d="M792 1153 c2 -22 9 -29 29 -31 29 -3 54 20 45 43 -3 9 -18 15 -41 15
-34 0 -36 -2 -33 -27z"/>
<path d="M2504 1165 c-10 -25 4 -45 29 -45 29 0 52 24 43 45 -7 20 -65 20 -72
0z"/>
<path d="M284 2035 c-10 -25 4 -45 29 -45 30 0 50 22 41 44 -8 21 -62 22 -70
1z"/>
<path d="M3004 2035 c-10 -25 4 -45 29 -45 30 0 50 22 41 44 -8 21 -62 22 -70
1z"/>
</g>
</svg>
