<?xml version="1.0" standalone="no"?>
<!DOCTYPE svg PUBLIC "-//W3C//DTD SVG 20010904//EN"
 "http://www.w3.org/TR/2001/REC-SVG-20010904/DTD/svg10.dtd">
<svg version="1.0" xmlns="http://www.w3.org/2000/svg"
 width="461.000000pt" height="214.000000pt" viewBox="0 0 461.000000 214.000000"
 preserveAspectRatio="xMidYMid meet">

<g transform="translate(0.000000,214.000000) scale(0.100000,-0.100000)"
fill="#000000" stroke="none">
<path d="M0 1070 l0 -1070 2305 0 2305 0 0 1070 0 1070 -2305 0 -2305 0 0
-1070z m1339 306 c39 -20 51 -30 42 -39 -7 -7 -11 -66 -11 -171 0 -142 -2
-165 -20 -193 -22 -36 -63 -49 -137 -40 -83 9 -87 20 -93 225 l-5 177 -60 5
-59 5 29 19 c83 54 221 59 314 12z m-521 -52 c16 -5 22 -13 20 -28 -2 -13 -9
-19 -18 -17 -8 2 -40 6 -71 9 -48 4 -60 1 -78 -17 -47 -47 -20 -88 92 -139 56
-26 70 -37 83 -68 19 -46 11 -83 -26 -119 -33 -31 -96 -42 -174 -31 -41 6 -46
10 -46 33 0 20 3 24 18 18 9 -4 43 -10 74 -13 66 -5 104 12 114 52 9 39 -13
66 -84 97 -37 17 -77 40 -89 51 -47 44 -38 134 16 163 27 15 128 20 169 9z
m184 -381 c29 -52 71 -72 218 -103 40 -8 36 -9 -35 -6 -95 3 -159 30 -218 89
-100 100 -111 251 -25 368 l33 44 5 -180 c4 -145 8 -186 22 -212z m730 377
c51 -15 78 -52 78 -108 0 -39 -5 -50 -39 -82 l-38 -37 53 -89 54 -89 -27 -3
c-15 -2 -29 0 -31 5 -1 4 -24 44 -50 88 -47 78 -49 80 -90 83 l-42 3 0 -90 c0
-90 0 -91 -25 -91 l-25 0 0 210 0 210 73 0 c39 0 89 -5 109 -10z m360 0 c51
-15 78 -52 78 -108 0 -39 -5 -50 -39 -82 l-38 -37 53 -89 54 -89 -27 -3 c-15
-2 -29 0 -31 5 -1 4 -24 44 -50 88 -47 78 -49 80 -90 83 l-42 3 0 -90 c0 -90
0 -91 -25 -91 l-25 0 0 210 0 210 73 0 c39 0 89 -5 109 -10z m532 1 c18 -8 23
-15 19 -31 -4 -15 -11 -19 -22 -14 -27 11 -98 17 -124 10 -14 -3 -30 -18 -37
-35 -18 -44 1 -68 83 -106 83 -38 106 -59 113 -107 13 -76 -46 -128 -144 -128
-85 0 -112 9 -112 37 0 20 4 24 18 18 9 -5 44 -10 77 -12 51 -4 64 -2 88 17
33 26 36 69 7 95 -12 10 -48 30 -82 44 -73 31 -100 64 -102 121 -1 35 4 46 32
71 29 26 40 29 97 29 35 0 75 -4 89 -9z m309 -5 c45 -19 68 -48 73 -93 11 -85
-53 -143 -158 -143 l-58 0 0 -86 c0 -83 -1 -85 -22 -82 -23 3 -23 4 -26 211
l-2 207 80 0 c46 0 95 -6 113 -14z m385 -174 c92 -236 91 -235 61 -230 -18 2
-28 16 -47 66 l-24 62 -86 0 -87 0 -23 -65 c-21 -57 -27 -65 -49 -65 -20 0
-24 4 -18 18 3 9 40 104 82 210 100 253 94 253 191 4z m427 176 c4 -3 4 -16 0
-28 -5 -16 -11 -19 -23 -14 -10 4 -39 9 -67 11 -101 8 -155 -50 -155 -167 0
-124 54 -175 173 -166 61 4 67 3 67 -14 0 -40 -162 -41 -218 -1 -84 60 -104
222 -39 319 36 53 89 74 179 70 42 -2 79 -6 83 -10z m315 -8 c0 -19 -7 -20
-90 -20 l-90 0 0 -70 0 -70 85 0 c78 0 85 -2 85 -20 0 -18 -7 -20 -85 -20
l-85 0 0 -75 0 -75 90 0 c89 0 90 0 90 -25 l0 -25 -115 0 -115 0 0 210 0 210
115 0 c108 0 115 -1 115 -20z m-1745 -365 c0 -25 -4 -30 -25 -30 -16 0 -26 6
-28 18 -6 30 6 49 30 45 18 -2 23 -9 23 -33z"/>
<path d="M1600 1211 l0 -81 58 0 c71 0 102 25 102 82 0 48 -24 67 -98 74 l-62
7 0 -82z"/>
<path d="M1960 1211 l0 -81 60 0 c72 0 100 22 100 80 0 50 -24 69 -98 76 l-62
7 0 -82z"/>
<path d="M2790 1206 l0 -86 44 0 c61 0 106 18 117 47 14 38 11 60 -13 88 -18
20 -36 26 -85 32 l-63 6 0 -87z"/>
<path d="M3192 1184 c-18 -48 -31 -89 -28 -91 2 -2 31 -3 63 -1 l60 3 -32 88
-32 89 -31 -88z"/>
</g>
</svg>
